<svg width="19" height="16" viewBox="0 0 19 16" fill="none" xmlns="http://www.w3.org/2000/svg">
<path d="M13.8981 0C12.0122 0 10.3867 0.886087 9.5 2.35391C8.61333 0.886087 6.98778 0 5.10185 0C3.74926 0.00161085 2.45253 0.533493 1.4961 1.47898C0.539668 2.42447 0.00162949 3.70636 0 5.04348C0 7.52956 1.58333 10.1278 4.69722 12.7643C6.13498 13.9738 7.68738 15.0434 9.33287 15.9583C9.38422 15.9857 9.44165 16 9.5 16C9.55835 16 9.61578 15.9857 9.66713 15.9583C11.3126 15.0434 12.865 13.9738 14.3028 12.7643C17.4167 10.1278 19 7.52956 19 5.04348C18.9984 3.70636 18.4603 2.42447 17.5039 1.47898C16.5475 0.533493 15.2507 0.00161085 13.8981 0ZM9.5 15.2539C8.26852 14.5617 0.703704 10.093 0.703704 5.04348C0.7051 3.89079 1.16892 2.7857 1.99343 1.97063C2.81794 1.15555 3.93582 0.697033 5.10185 0.695652C6.95875 0.695652 8.51921 1.67913 9.17454 3.26174C9.20105 3.32553 9.24614 3.3801 9.30409 3.4185C9.36204 3.4569 9.43023 3.4774 9.5 3.4774C9.56977 3.4774 9.63796 3.4569 9.69591 3.4185C9.75386 3.3801 9.79895 3.32553 9.82546 3.26174C10.4808 1.67913 12.0413 0.695652 13.8981 0.695652C15.0642 0.697033 16.1821 1.15555 17.0066 1.97063C17.8311 2.7857 18.2949 3.89079 18.2963 5.04348C18.2963 10.087 10.7315 14.5617 9.5 15.2539Z" fill="#A12D63"/>
</svg>
