<svg width="17" height="17" viewBox="0 0 17 17" fill="none" xmlns="http://www.w3.org/2000/svg">
<path d="M16 5H1.48389" stroke="#A12D63" stroke-linecap="round"/>
<path d="M8.94434 4.5C8.94434 6.46439 7.46064 8 5.69825 8C3.93586 8 2.45215 6.46439 2.45215 4.5C2.45215 2.53561 3.93586 1 5.69825 1C7.46064 1 8.94434 2.53561 8.94434 4.5Z" fill="white" stroke="#A12D63"/>
<path d="M0.999983 13H15.5161" stroke="#A12D63" stroke-linecap="round"/>
<path d="M8.05566 12.5C8.05566 14.4644 9.53936 16 11.3018 16C13.0641 16 14.5479 14.4644 14.5479 12.5C14.5479 10.5356 13.0641 9 11.3018 9C9.53936 9 8.05566 10.5356 8.05566 12.5Z" fill="white" stroke="#A12D63"/>
</svg>
