<svg width="26" height="24" viewBox="0 0 26 24" fill="none" xmlns="http://www.w3.org/2000/svg">
<g clip-path="url(#clip0_165_1308)">
<rect y="0.5" width="26" height="23" rx="8" fill="#A12D63"/>
<path fill-rule="evenodd" clip-rule="evenodd" d="M11.8013 12.7119V11.833H8.91064V12.751H10.7271V12.9023C10.7173 13.9473 9.92627 14.6504 8.77393 14.6504C7.45068 14.6504 6.62061 13.625 6.62061 11.9648C6.62061 10.334 7.4458 9.30371 8.74951 9.30371C9.71143 9.30371 10.3804 9.76758 10.6538 10.6172H11.7524C11.5132 9.19141 10.3511 8.2832 8.74951 8.2832C6.77686 8.2832 5.50244 9.72852 5.50244 11.9746C5.50244 14.25 6.76221 15.6709 8.75928 15.6709C10.605 15.6709 11.8013 14.5137 11.8013 12.7119ZM14.3989 15.5V8.4541H13.3052V15.5H14.3989ZM17.2554 15.5V12.5801H20.2827V11.6133H17.2554V9.4502H20.561V8.4541H16.1616V15.5H17.2554Z" fill="white"/>
</g>
<defs>
<clipPath id="clip0_165_1308">
<rect width="26" height="23" fill="white" transform="translate(0 0.5)"/>
</clipPath>
</defs>
</svg>
