<svg width="45" height="29" viewBox="0 0 45 29" fill="none" xmlns="http://www.w3.org/2000/svg">
<path d="M15.6048 29L13.3421 26.9139C5.30563 19.5335 0 14.6501 0 8.6921C0 3.80872 3.77636 0 8.58264 0C11.2979 0 13.9039 1.28011 15.6048 3.28719C17.3057 1.28011 19.9117 0 22.627 0C27.4333 0 31.2096 3.80872 31.2096 8.6921C31.2096 14.6501 25.904 19.5335 17.8675 26.9139L15.6048 29Z" fill="#4E55FD" fill-opacity="0.75"/>
<path d="M29.3953 29L27.1326 26.9139C19.0962 19.5335 13.7905 14.6501 13.7905 8.6921C13.7905 3.80872 17.5669 0 22.3732 0C25.0884 0 27.6944 1.28011 29.3953 3.28719C31.0963 1.28011 33.7023 0 36.4175 0C41.2238 0 45.0001 3.80872 45.0001 8.6921C45.0001 14.6501 39.6945 19.5335 31.658 26.9139L29.3953 29Z" fill="#A12D63" fill-opacity="0.75"/>
</svg>
