<svg width="167" height="150" viewBox="0 0 167 150" fill="none" xmlns="http://www.w3.org/2000/svg">
<path d="M150.012 83.6476C150.018 89.0927 149.35 94.5177 148.025 99.7998C147.542 101.743 146.974 103.654 146.313 105.523C146.105 106.113 145.893 106.694 145.672 107.278C145.359 108.107 145.027 108.925 144.677 109.731C144.414 110.317 144.152 110.904 143.889 111.483C143.245 112.879 142.554 114.242 141.815 115.572C141.492 116.164 141.156 116.748 140.815 117.324C139.573 119.422 138.217 121.451 136.753 123.401C136.307 123.993 135.851 124.578 135.385 125.155C134.251 126.567 133.059 127.931 131.809 129.245C125.597 135.809 118.105 141.037 109.792 144.606C101.479 148.176 92.5218 150.011 83.4711 150C50.8373 150 23.691 126.574 18.0223 95.6656C16.208 85.7722 16.6685 75.5973 19.3691 65.9072C22.0697 56.2171 26.94 47.2643 33.6132 39.7232C35.4698 37.623 37.4598 35.6439 39.5707 33.798C51.7013 23.1429 67.3189 17.2765 83.4843 17.3028C84.6028 17.3028 85.7143 17.3308 86.8188 17.3866C88.6585 17.4791 90.4772 17.6441 92.2748 17.8815C124.859 22.1571 150.012 49.9712 150.012 83.6476Z" fill="#A12D63"/>
<path d="M81.3024 76.0547C76.5489 78.6862 71.2713 80.2385 65.8465 80.6006C60.4218 80.9626 54.9838 80.1256 49.921 78.1493L46.2661 87.439C50.2334 88.6251 53.5916 89.387 56.0439 89.8766C59.683 90.6019 61.5577 90.9658 63.9208 90.9606C67.2553 90.9606 69.6972 90.3086 73.0527 89.4053C76.441 88.488 79.7453 87.2863 82.9303 85.8131L81.3024 76.0547Z" fill="#F9B180"/>
<path d="M38.1188 68.4798H92.7081L91.3506 14.585L38.1188 14.043V68.4798Z" fill="#F9B180"/>
<mask id="mask0_2920_2467" style="mask-type:luminance" maskUnits="userSpaceOnUse" x="38" y="14" width="55" height="55">
<path d="M38.1188 68.4798H92.7081L91.3506 14.585L38.1188 14.043V68.4798Z" fill="white"/>
</mask>
<g mask="url(#mask0_2920_2467)">
<path opacity="0.38" d="M31.9433 22.6572C33.1147 23.5957 34.5609 24.1279 36.0629 24.1732C37.3062 24.223 38.5507 24.1112 39.765 23.8406V24.1025C41.9705 22.3246 46.8043 20.2091 51.5803 18.8659C55.9861 17.6248 57.7873 18.2977 67.9799 18.4862C80.9951 18.7271 82.946 17.7217 85.4508 19.9132C88.5753 22.6519 88.9928 27.2758 89.5363 33.2665C89.9984 38.4062 89.5363 45.0488 89.5363 45.0488C89.5363 45.0488 90.7047 52.5344 87.2888 57.3547C85.6635 59.6457 84.503 59.2189 83.3503 61.0203C83.0119 61.5522 82.761 62.1348 82.6073 62.7458C80.9951 69.0087 88.2524 73.8185 93.5509 70.0901L107.393 60.3448C108.401 59.6361 109.205 58.6766 109.725 57.5616C110.245 56.4467 110.463 55.2154 110.357 53.9902L106.868 13.4775C106.773 12.3618 106.413 11.2848 105.818 10.3355C103.208 6.19076 95.8194 -5.458 95.1735 -5.59415C94.4488 -5.74863 65.2414 -5.76172 60.6098 -5.76172C60.1979 -5.76142 59.7868 -5.72551 59.381 -5.65437C56.4193 -5.13071 43.6798 -2.8816 43.4488 -2.8816H43.3044C38.187 -2.95753 29.0577 -0.904799 26.3822 6.02057C24.3447 11.2859 26.4584 18.2061 31.9433 22.6572Z" fill="#8C4C20"/>
</g>
<path d="M95.1184 60.9598C94.3307 54.2884 93.7031 47.2112 93.3172 39.7517C93.031 34.2271 92.8997 28.8989 92.8866 23.7801L92.2643 17.8576L92.0411 15.7027C91.9535 14.883 92.1952 14.062 92.7133 13.4196L92.7763 13.341C93.0349 13.0201 93.2274 12.6514 93.3428 12.256C93.4581 11.8607 93.494 11.4465 93.4483 11.0373C93.4027 10.6281 93.2765 10.2319 93.0769 9.8715C92.8773 9.51108 92.6083 9.19352 92.2853 8.93706C88.0581 5.58566 81.4625 1.51684 72.9555 0.333371C67.9668 -0.360475 64.3408 0.220782 63.5032 0.367406C56.9392 1.48803 52.2131 4.67973 49.5875 6.86076C49.0091 7.33507 48.2803 7.58847 47.5316 7.57555C45.064 6.99294 42.5371 6.69686 40.0013 6.69319C40.0013 6.69319 37.465 6.69319 35.845 7.80073C35.4231 8.0626 35.0844 8.43848 34.8682 8.8847C34.661 9.35333 34.5988 9.87302 34.6897 10.3771C34.7267 10.5933 34.7416 10.8126 34.7343 11.0317C34.8105 11.6418 35.8187 24.2881 34.5978 39.7464C33.5764 52.6546 31.8855 56.3595 33.8757 63.819C34.9601 67.8773 36.3071 69.9563 37.4177 71.2968C40.9019 75.5044 46.1663 77.3948 49.7082 78.7039C50.6745 79.0618 51.6818 79.3847 52.7303 79.6727C61.8859 82.181 69.4188 80.4949 73.6224 79.4999C76.3027 78.8663 78.9225 78.0008 81.452 76.913C85.8289 75.0331 88.3863 74.0329 90.5997 71.7838C91.7576 70.6108 94.5959 67.2987 95.1184 60.9598ZM90.7047 51.5549C90.7044 53.8099 90.2018 56.0366 89.2333 58.0742C88.2647 60.1118 86.8544 61.9094 85.1042 63.3372C83.6537 60.7309 81.6061 58.5033 79.1283 56.836L78.7319 56.5742C76.0228 54.8838 72.8875 53.9966 69.6918 54.0161H61.9174C58.9422 54.0107 56.0172 54.7796 53.4314 56.2469C52.6874 56.6676 51.9286 57.1345 51.155 57.6477C48.69 59.2849 46.4169 61.1924 44.3782 63.3346C42.5328 61.8195 41.0953 59.8694 40.1959 57.6608C39.2964 55.4522 38.9633 53.0549 39.2268 50.6857C39.3423 45.0563 39.4578 39.427 39.5733 33.7977C39.6346 30.9193 39.6932 28.0392 39.7493 25.1574C39.7736 23.6382 40.1799 22.1494 40.9308 20.8274C41.6818 19.5054 42.7533 18.3925 44.0474 17.5905L44.1078 17.5538L44.1577 17.5198C46.3068 16.2428 48.7779 15.6068 51.2784 15.687L84.4583 16.627C85.5497 16.6586 86.5939 17.0777 87.403 17.8087C88.2121 18.5397 88.733 19.5347 88.872 20.6146L90.1848 30.8259C90.5552 33.756 90.735 36.7068 90.7231 39.66L90.7047 51.5549Z" fill="#212121"/>
<path d="M57.1729 28.7651L47.1404 29.9433C48.0016 28.896 50.194 26.5631 53.7701 25.7252C54.8885 25.4694 56.0389 25.3811 57.1834 25.4634L57.1729 28.7651Z" fill="black" stroke="black" stroke-width="2" stroke-miterlimit="10"/>
<path d="M73.4412 28.7654L83.4737 29.9436C82.6125 28.8963 80.4175 26.5634 76.8414 25.7255C75.7231 25.4691 74.5726 25.3809 73.4281 25.4637L73.4412 28.7654Z" fill="black" stroke="black" stroke-width="2" stroke-miterlimit="10"/>
<path d="M76.277 39.5032C76.9512 39.5032 77.4979 38.1692 77.4979 36.5236C77.4979 34.878 76.9512 33.5439 76.277 33.5439C75.6027 33.5439 75.056 34.878 75.056 36.5236C75.056 38.1692 75.6027 39.5032 76.277 39.5032Z" fill="black" stroke="black" stroke-width="2" stroke-miterlimit="10"/>
<path d="M54.5499 39.2307C55.2242 39.2307 55.7708 37.8967 55.7708 36.2511C55.7708 34.6055 55.2242 33.2715 54.5499 33.2715C53.8756 33.2715 53.329 34.6055 53.329 36.2511C53.329 37.8967 53.8756 39.2307 54.5499 39.2307Z" fill="black" stroke="black" stroke-width="2" stroke-miterlimit="10"/>
<path d="M65.8848 30.281C66.6724 33.6403 67.3551 37.0153 68.0614 40.3902C68.2452 41.2307 68.4526 42.0686 68.5865 42.9195C68.7128 43.5332 68.6562 44.1703 68.4237 44.7523C68.2587 45.1569 68.0078 45.521 67.6883 45.8198C67.3687 46.1185 66.9882 46.3448 66.5727 46.483C66.2182 46.483 65.8637 46.4568 65.5224 46.4332C65.1811 46.4097 64.8319 46.3783 64.4722 46.3259V46.195C64.803 46.0772 65.1365 45.9803 65.4673 45.8886C65.7981 45.797 66.1368 45.7106 66.4703 45.6268L66.3206 45.6713C66.7175 45.3911 67.0194 44.9969 67.1859 44.5413C67.3524 44.0857 67.3757 43.5903 67.2527 43.1211C67.1057 42.2728 67.0348 41.414 66.9403 40.5552C66.7066 38.5025 66.4283 36.4549 66.2077 34.3996C66.0633 33.0276 65.9031 31.6582 65.7719 30.2836L65.9005 30.2627L65.8848 30.281Z" fill="black"/>
<path d="M59.1605 58.0146C61.2596 58.9975 63.5479 59.5135 65.8669 59.5271C68.1858 59.5406 70.48 59.0514 72.5906 58.0932C72.944 59.3643 72.9513 60.7065 72.6116 61.9814C72.5801 62.0939 72.5459 62.2039 72.5118 62.3139C72.0996 63.511 71.3197 64.5482 70.2828 65.2781C69.2458 66.0081 68.0046 66.3936 66.7354 66.3801H65.3491C64.2452 66.3819 63.1618 66.0829 62.2159 65.5153C61.27 64.9477 60.4977 64.1331 59.9823 63.1596C59.8312 62.8668 59.6979 62.5651 59.5832 62.2563C59.078 60.9024 58.9324 59.4412 59.1605 58.0146Z" fill="white"/>
<path d="M46.1585 86.4884L41.2013 93.7699C43.2782 95.7781 46.1165 97.5376 50.349 99.6532C52.7268 100.84 55.2235 101.774 57.7978 102.439C58.1494 102.511 58.5138 102.488 58.8538 102.374C59.1937 102.259 59.4971 102.057 59.7329 101.787L63.8945 96.5165C64.0051 96.3766 64.1454 96.263 64.3053 96.1837C64.4652 96.1044 64.6407 96.0615 64.8193 96.058C64.9978 96.0545 65.1749 96.0905 65.3378 96.1634C65.5007 96.2364 65.6454 96.3444 65.7614 96.4798L69.8862 101.318C70.121 101.593 70.4181 101.807 70.7529 101.944C71.0877 102.081 71.4504 102.135 71.8108 102.104C77.4623 101.593 82.8872 99.6422 87.5645 96.4379C88.1657 96.0277 88.5863 95.4032 88.7397 94.6931C88.8931 93.9829 88.7676 93.2411 88.389 92.6205C86.8136 90.0598 85.0912 87.164 83.6628 84.8887C78.0918 88.3878 71.7011 90.3755 65.1231 90.6552C58.5451 90.9349 52.0079 89.4968 46.1585 86.4832V86.4884Z" fill="white"/>
<path d="M109.189 129.245C109.539 134.307 109.889 139.361 110.239 144.407C101.8 148.109 92.6781 150.013 83.458 150C50.8242 150 23.6779 126.574 18.0092 95.665C21.7754 94.4727 25.642 93.6226 29.5619 93.1253C32.3822 92.9495 35.2133 93.1582 37.977 93.7458C38.7669 93.9096 39.4948 94.2916 40.0775 94.8481C45.1279 99.709 51.5694 102.883 58.5094 103.931C58.908 103.994 59.3162 103.955 59.6956 103.818C60.075 103.681 60.4132 103.449 60.6781 103.145L64.333 98.93C64.4306 98.8164 64.5511 98.7246 64.6867 98.6604C64.8222 98.5962 64.9698 98.5611 65.1198 98.5574C65.2698 98.5537 65.4189 98.5814 65.5575 98.6389C65.696 98.6963 65.8209 98.7821 65.9241 98.8908L69.4188 102.575C69.6749 102.847 69.9885 103.058 70.3369 103.194C70.6852 103.33 71.0596 103.387 71.4327 103.36C76.1901 103.023 80.8168 101.657 84.9914 99.3568C87.2351 98.1163 89.3223 96.6133 91.2088 94.8796C92.7893 93.4245 94.8208 92.5515 96.9668 92.4053C99.4261 92.2345 101.897 92.4438 104.292 93.0258C109.383 94.2564 113.219 97.9089 115.139 99.8019C115.401 100.048 115.609 100.265 115.793 100.441L109.523 105.74L107.656 107.324C107.882 110.54 108.108 113.754 108.336 116.967C108.349 117.174 108.362 117.386 108.378 117.596C108.52 119.617 108.662 121.64 108.806 123.665C108.928 125.524 109.056 127.384 109.189 129.245Z" fill="white"/>
<path d="M150.432 99.7021H107.787C105.367 99.7021 103.405 101.659 103.405 104.072V121.379C103.405 123.792 105.367 125.749 107.787 125.749H150.432C152.852 125.749 154.814 123.792 154.814 121.379V104.072C154.814 101.659 152.852 99.7021 150.432 99.7021Z" fill="black"/>
<path d="M147.977 104.767H121.338V106.317H147.977V104.767Z" fill="white"/>
<path d="M147.977 108.487H121.338V110.037H147.977V108.487Z" fill="white"/>
<path d="M147.977 113.655H121.338V115.205H147.977V113.655Z" fill="white"/>
<path d="M147.977 120.581H121.338V122.131H147.977V120.581Z" fill="white"/>
<path d="M109.034 115.023C107.068 113.884 105.92 111.786 106.112 109.66C106.374 106.89 108.761 105.508 109.137 105.298C111.935 103.748 114.761 105.162 115.007 105.298C116.375 106.034 117.431 107.237 117.982 108.686C118.375 109.588 118.505 110.582 118.358 111.553C118.127 112.712 117.499 113.754 116.583 114.502C116.454 114.614 116.35 114.751 116.277 114.905C116.204 115.06 116.164 115.227 116.16 115.398C116.156 115.568 116.187 115.738 116.253 115.895C116.318 116.053 116.415 116.195 116.538 116.313L118.97 118.67C119.093 118.789 119.19 118.932 119.255 119.091C119.32 119.25 119.35 119.42 119.345 119.592C119.335 119.912 119.201 120.216 118.971 120.44C118.741 120.664 118.432 120.789 118.111 120.791L107.131 120.827C106.968 120.828 106.806 120.796 106.656 120.734C106.505 120.672 106.368 120.581 106.253 120.466C106.137 120.352 106.046 120.215 105.983 120.065C105.921 119.915 105.889 119.754 105.889 119.592V118.521C105.888 118.341 105.928 118.164 106.003 118.001C106.079 117.838 106.19 117.694 106.327 117.578L109.05 115.279L109.034 115.023Z" fill="white"/>
<path d="M142.527 101.585C142.322 102.538 141.699 104.546 139.376 106.56C138.733 107.633 138.74 108.356 138.872 108.822C139.003 109.288 139.263 109.482 139.234 109.937C139.192 110.571 138.62 111.278 138.055 111.246C137.491 111.215 137.136 110.477 136.839 109.838C136.61 109.343 136.47 108.811 136.427 108.267C136.38 107.71 136.427 107.15 136.566 106.609C136.587 106.53 136.588 106.446 136.567 106.367C136.547 106.287 136.506 106.214 136.449 106.154C136.392 106.095 136.321 106.051 136.242 106.026C136.164 106.002 136.08 105.998 135.999 106.015C135.875 106.039 135.765 106.112 135.695 106.217C135.259 106.81 135.038 107.532 135.067 108.267C135.159 109.518 136.117 110.121 135.808 110.985C135.749 111.214 135.616 111.418 135.428 111.564C135.24 111.709 135.009 111.788 134.772 111.788C134.534 111.788 134.303 111.709 134.116 111.564C133.928 111.418 133.794 111.214 133.736 110.985C133.09 109.579 132.969 107.989 133.395 106.502C133.425 106.392 133.43 106.276 133.409 106.164C133.387 106.051 133.34 105.946 133.27 105.855C133.201 105.764 133.111 105.69 133.009 105.639C132.906 105.588 132.793 105.562 132.678 105.562C132.533 105.561 132.391 105.603 132.27 105.681C132.149 105.76 132.053 105.872 131.995 106.005C131.584 106.888 131.43 107.868 131.549 108.835C131.756 110.406 132.738 111.385 132.213 112.278C132.113 112.445 131.977 112.586 131.815 112.693C131.653 112.8 131.468 112.87 131.276 112.896C130.588 112.933 130.139 112.194 130.121 112.163C129.902 110.976 129.834 109.766 129.918 108.563C130.029 107.209 130.181 105.583 130.223 105.452C130.223 105.452 130.205 105.452 130.199 105.468C130.05 105.675 129.346 105.696 128.724 105.669C128.359 105.65 128.001 105.768 127.72 105.999C127.438 106.231 127.255 106.56 127.206 106.921V106.95C127.035 108.416 128.101 109.149 127.705 110.076C127.562 110.368 127.337 110.612 127.057 110.778C126.777 110.944 126.455 111.026 126.13 111.013C125.794 110.985 125.473 110.864 125.203 110.662C124.933 110.461 124.726 110.188 124.604 109.874C123.784 105.736 123.716 101.485 124.402 97.3224C124.436 97.1011 124.549 96.8995 124.72 96.7551C124.891 96.6106 125.11 96.5331 125.334 96.5369H125.809C125.955 96.5393 126.099 96.5131 126.234 96.4598C126.369 96.4064 126.493 96.327 126.597 96.2261C126.702 96.1252 126.785 96.0047 126.843 95.8716C126.9 95.7384 126.931 95.5953 126.933 95.4503V95.0078C127.74 94.8466 128.56 94.7589 129.383 94.746C130.194 94.7328 131.005 94.7906 131.806 94.9188L131.811 95.4293C131.819 95.6245 131.868 95.8159 131.954 95.9914C132.04 96.1669 132.162 96.3227 132.311 96.4487C132.461 96.5748 132.635 96.6684 132.823 96.7237C133.011 96.779 133.208 96.7948 133.403 96.7699C133.955 96.6953 134.512 96.6551 135.07 96.6495C135.981 96.6382 136.891 96.7163 137.787 96.8825C138.118 96.9436 138.417 97.1181 138.632 97.3759C138.848 97.6336 138.966 97.9583 138.966 98.2937V99.3411C140.405 98.6839 141.752 98.7048 142.345 99.3777C142.863 99.9433 142.681 100.847 142.527 101.585Z" fill="#F9B180"/>
<path d="M167 38.2565H163.222V24.2749H145.683V20.5098H167V38.2565Z" fill="#A12D63"/>
<path d="M3.77564 38.2565H0V20.5098H21.3174V24.2749H3.77564V38.2565Z" fill="#A12D63"/>
<path d="M167 135.144H145.683V131.379H163.222V117.397H167V135.144Z" fill="#A12D63"/>
<path d="M21.3174 135.487H0V117.74H3.77564V131.722H21.3174V135.487Z" fill="#A12D63"/>
<path opacity="0.36" d="M53.3264 8.18026C62.6395 0.359439 76.1037 0.50868 85.787 7.61471C87.1357 8.57012 88.3918 9.6492 89.539 10.8378C88.2542 9.82293 86.9034 8.89402 85.4955 8.0572C82.8925 6.48162 80.0933 5.25363 77.1697 4.4047C76.7995 4.31829 75.7886 4.06694 75.4079 3.97006C74.7357 3.83129 74.0032 3.70823 73.3284 3.59303C66.276 2.62426 59.3338 4.37851 53.3264 8.18026Z" fill="white"/>
<path opacity="0.36" d="M54.03 9.03937C59.213 5.37377 66.5385 5.55181 71.7083 9.17028C73.4362 10.316 74.9311 11.7774 76.1141 13.4774C73.52 11.0764 70.5531 9.14148 67.187 8.12297C62.8547 6.77717 58.21 7.27726 54.0405 9.04199L54.03 9.03937Z" fill="white"/>
<path opacity="0.36" d="M55.4584 7.76359C60.4628 3.85186 67.7988 3.70262 73.1236 7.07497C74.9016 8.14148 76.4621 9.53249 77.7236 11.1752C75.0192 8.89469 71.9683 7.09854 68.5471 6.23713C64.1571 5.09294 59.5386 5.80772 55.4584 7.76359Z" fill="white"/>
<path d="M111.723 28.5798C130.199 40.074 142.54 61.1486 142.127 83.0192C142.094 85.6846 141.873 88.3443 141.466 90.9788L141.363 90.9657C141.549 87.9508 141.559 84.9278 141.395 81.9117C140.909 73.2923 138.998 64.7095 135.548 56.7761C132.934 50.916 129.468 45.4725 125.26 40.6213C121.295 36.0372 116.721 32.0141 111.665 28.6635L111.723 28.5771V28.5798Z" fill="white"/>
<path d="M65.3937 102.815V116.47" stroke="black" stroke-miterlimit="10"/>
<path d="M67.7358 106.518C68.3623 106.518 68.8701 106.012 68.8701 105.387C68.8701 104.762 68.3623 104.256 67.7358 104.256C67.1094 104.256 66.6016 104.762 66.6016 105.387C66.6016 106.012 67.1094 106.518 67.7358 106.518Z" stroke="black" stroke-miterlimit="10"/>
<path d="M67.7358 111.045C68.3623 111.045 68.8701 110.539 68.8701 109.914C68.8701 109.29 68.3623 108.783 67.7358 108.783C67.1094 108.783 66.6016 109.29 66.6016 109.914C66.6016 110.539 67.1094 111.045 67.7358 111.045Z" stroke="black" stroke-miterlimit="10"/>
<path d="M67.7358 115.572C68.3623 115.572 68.8701 115.065 68.8701 114.441C68.8701 113.816 68.3623 113.31 67.7358 113.31C67.1094 113.31 66.6016 113.816 66.6016 114.441C66.6016 115.065 67.1094 115.572 67.7358 115.572Z" stroke="black" stroke-miterlimit="10"/>
</svg>
