<svg width="30" height="30" viewBox="0 0 30 30" fill="none" xmlns="http://www.w3.org/2000/svg">
<path d="M18.35 30.0001C17.5333 30.0001 16.7667 29.6168 16.1333 29.2834C15.7333 29.0834 15.25 28.8334 15 28.8334C14.75 28.8334 14.25 29.0834 13.8667 29.2834C13.0667 29.7001 12.0667 30.2001 11 29.9168C9.89999 29.6334 9.29999 28.6668 8.79999 27.9001C8.58333 27.5501 8.28333 27.0834 8.08333 26.9668C7.88333 26.8501 7.34999 26.8334 6.89999 26.8001C5.99999 26.7501 4.88333 26.7001 4.08333 25.9168C3.28333 25.1001 3.23333 23.9834 3.18333 23.0834C3.16666 22.6501 3.13333 22.1001 3.01666 21.9001C2.91666 21.7168 2.43333 21.4168 2.09999 21.2001C1.33333 20.7001 0.383326 20.0834 0.0833263 19.0001C-0.200007 17.9334 0.299993 16.9334 0.71666 16.1334C0.91666 15.7334 1.16666 15.2501 1.16666 15.0001C1.16666 14.7501 0.91666 14.2501 0.71666 13.8668C0.299993 13.0668 -0.200007 12.0668 0.0833263 11.0001C0.36666 9.90012 1.33333 9.30011 2.09999 8.80011C2.44999 8.58345 2.91666 8.28345 3.03333 8.08345C3.14999 7.88345 3.16666 7.35011 3.19999 6.90011C3.24999 6.00011 3.29999 4.88345 4.08333 4.08345C4.89999 3.28345 6.01666 3.23345 6.91666 3.18345C7.34999 3.16678 7.89999 3.13345 8.09999 3.01678C8.28333 2.91678 8.58333 2.43345 8.79999 2.10012C9.29999 1.33345 9.91666 0.383448 11 0.0834484C12.0667 -0.199885 13.0667 0.300115 13.8667 0.716782C14.2667 0.916782 14.75 1.16678 15 1.16678C15.25 1.16678 15.75 0.916782 16.1333 0.716782C16.9333 0.316782 17.9333 -0.199885 19 0.0834484C20.1 0.366782 20.7 1.33345 21.2 2.10012C21.4167 2.45012 21.7167 2.91678 21.9167 3.03345C22.1167 3.15012 22.65 3.16678 23.1 3.20011C24 3.25011 25.1167 3.30011 25.9167 4.08345C26.7167 4.90011 26.7667 6.01678 26.8167 6.91678C26.8333 7.35011 26.8667 7.90012 26.9833 8.10011C27.0833 8.28345 27.5667 8.58345 27.9 8.80011C28.6667 9.30011 29.6167 9.91678 29.9167 11.0001C30.2 12.0668 29.7 13.0668 29.2833 13.8668C29.0833 14.2668 28.8333 14.7501 28.8333 15.0001C28.8333 15.2501 29.0833 15.7501 29.2833 16.1334C29.7 16.9334 30.2 17.9334 29.9167 19.0001C29.6333 20.1001 28.6667 20.7001 27.9 21.2001C27.55 21.4168 27.0833 21.7168 26.9667 21.9168C26.85 22.1168 26.8333 22.6501 26.8 23.1001C26.75 24.0001 26.7 25.1168 25.9167 25.9168C25.1 26.7168 23.9833 26.7668 23.0833 26.8168C22.65 26.8334 22.1 26.8668 21.9 26.9834C21.7167 27.0834 21.4167 27.5668 21.2 27.9001C20.7 28.6668 20.0833 29.6168 19 29.9168C18.7833 29.9834 18.5667 30.0001 18.35 30.0001ZM11.6667 2.50011H11.65C11.4833 2.56678 11.1 3.13345 10.9167 3.45012C10.5167 4.06678 10.0667 4.76678 9.34999 5.18345C8.61666 5.60011 7.78333 5.65011 7.03333 5.68345C6.66666 5.70011 5.98333 5.73345 5.83333 5.85011C5.73333 5.98345 5.69999 6.65012 5.68333 7.01678C5.64999 7.76678 5.59999 8.60011 5.18333 9.31678C4.76666 10.0334 4.06666 10.4834 3.44999 10.8834C3.13333 11.0834 2.56666 11.4501 2.49999 11.6334C2.48333 11.8168 2.76666 12.3834 2.93333 12.7168C3.26666 13.3834 3.66666 14.1334 3.66666 14.9834C3.66666 15.8334 3.28333 16.5834 2.93333 17.2501C2.76666 17.5834 2.46666 18.1501 2.49999 18.3334C2.56666 18.5001 3.13333 18.8834 3.44999 19.0668C4.06666 19.4668 4.76666 19.9168 5.18333 20.6334C5.59999 21.3668 5.64999 22.2001 5.68333 22.9501C5.69999 23.3168 5.73333 24.0001 5.84999 24.1501C5.98333 24.2501 6.64999 24.2834 7.01666 24.3001C7.76666 24.3334 8.59999 24.3834 9.31666 24.8001C10.0333 25.2168 10.4833 25.9168 10.8833 26.5334C11.0833 26.8501 11.45 27.4168 11.6333 27.4834C11.8 27.5334 12.3833 27.2168 12.7167 27.0501C13.3833 26.7168 14.1333 26.3168 14.9833 26.3168C15.8333 26.3168 16.5833 26.7001 17.25 27.0501C17.5833 27.2168 18.1167 27.5334 18.3333 27.4834C18.5 27.4168 18.8833 26.8501 19.0667 26.5334C19.4667 25.9168 19.9167 25.2168 20.6333 24.8001C21.3667 24.3834 22.2 24.3334 22.95 24.3001C23.3167 24.2834 24 24.2501 24.15 24.1334C24.25 24.0001 24.2833 23.3334 24.3 22.9668C24.3333 22.2168 24.3833 21.3834 24.8 20.6668C25.2167 19.9501 25.9167 19.5001 26.5333 19.1001C26.85 18.9001 27.4167 18.5334 27.4833 18.3501C27.5 18.1668 27.2167 17.6001 27.05 17.2668C26.7167 16.6001 26.3167 15.8501 26.3167 15.0001C26.3167 14.1501 26.7 13.4001 27.05 12.7334C27.2167 12.4001 27.5 11.8334 27.4833 11.6501C27.4167 11.4668 26.8333 11.1001 26.5333 10.9001C25.9167 10.5001 25.2167 10.0501 24.8 9.33345C24.3833 8.60012 24.3333 7.76678 24.3 7.01678C24.2833 6.65012 24.25 5.96678 24.1333 5.81678C24 5.71678 23.3333 5.68345 22.9667 5.66678C22.2167 5.63345 21.3833 5.58345 20.6667 5.16678C19.95 4.75011 19.5 4.05011 19.1 3.43345C18.9 3.11678 18.5333 2.55011 18.35 2.48345C18.1833 2.43345 17.6 2.75011 17.2667 2.91678C16.6 3.25011 15.85 3.65012 15 3.65012C14.15 3.65012 13.4 3.26678 12.7333 2.91678C12.4 2.75011 11.8667 2.48345 11.6667 2.48345V2.50011ZM12.4833 20.8501C12.1519 20.8498 11.8342 20.7179 11.6 20.4834L7.41666 16.3001C6.93333 15.8168 6.93333 15.0168 7.41666 14.5334C7.89999 14.0501 8.69999 14.0501 9.18333 14.5334L12.4833 17.8334L20.8 9.51678C21.2833 9.03345 22.0833 9.03345 22.5667 9.51678C23.05 10.0001 23.05 10.8001 22.5667 11.2834L13.3667 20.4834C13.1325 20.7179 12.8147 20.8498 12.4833 20.8501Z" fill="#A12D63"/>
</svg>
