<svg width="24" height="25" viewBox="0 0 24 25" fill="none" xmlns="http://www.w3.org/2000/svg">
<path d="M20.8125 12.5C20.8125 12.6492 20.7532 12.7923 20.6477 12.8977C20.5423 13.0032 20.3992 13.0625 20.25 13.0625H3.75C3.60082 13.0625 3.45774 13.0032 3.35225 12.8977C3.24676 12.7923 3.1875 12.6492 3.1875 12.5C3.1875 12.3508 3.24676 12.2077 3.35225 12.1023C3.45774 11.9968 3.60082 11.9375 3.75 11.9375H20.25C20.3992 11.9375 20.5423 11.9968 20.6477 12.1023C20.7532 12.2077 20.8125 12.3508 20.8125 12.5ZM3.75 7.0625H20.25C20.3992 7.0625 20.5423 7.00324 20.6477 6.89775C20.7532 6.79226 20.8125 6.64918 20.8125 6.5C20.8125 6.35082 20.7532 6.20774 20.6477 6.10225C20.5423 5.99676 20.3992 5.9375 20.25 5.9375H3.75C3.60082 5.9375 3.45774 5.99676 3.35225 6.10225C3.24676 6.20774 3.1875 6.35082 3.1875 6.5C3.1875 6.64918 3.24676 6.79226 3.35225 6.89775C3.45774 7.00324 3.60082 7.0625 3.75 7.0625ZM20.25 17.9375H3.75C3.60082 17.9375 3.45774 17.9968 3.35225 18.1023C3.24676 18.2077 3.1875 18.3508 3.1875 18.5C3.1875 18.6492 3.24676 18.7923 3.35225 18.8977C3.45774 19.0032 3.60082 19.0625 3.75 19.0625H20.25C20.3992 19.0625 20.5423 19.0032 20.6477 18.8977C20.7532 18.7923 20.8125 18.6492 20.8125 18.5C20.8125 18.3508 20.7532 18.2077 20.6477 18.1023C20.5423 17.9968 20.3992 17.9375 20.25 17.9375Z" fill="#A12D63"/>
</svg>
