<svg width="117" height="24" viewBox="0 0 117 24" fill="none" xmlns="http://www.w3.org/2000/svg">
<g clip-path="url(#clip0_183_2617)">
<path d="M20.1697 9.82106C20.1474 11.486 21.733 12.4151 22.9275 12.9675C24.1546 13.5343 24.5669 13.8977 24.562 14.4046C24.5528 15.1803 23.5831 15.5227 22.6757 15.536C21.0925 15.5592 20.1719 15.1303 19.4401 14.8058L18.8698 17.3387C19.604 17.6598 20.9636 17.9399 22.3734 17.9521C25.6828 17.9521 27.8479 16.4017 27.8597 13.9978C27.8726 10.9469 23.4134 10.778 23.4439 9.41437C23.4544 9.00087 23.8701 8.55962 24.781 8.44743C25.2319 8.39075 26.4766 8.34738 27.8878 8.96415L28.4417 6.51355C27.6828 6.25128 26.7074 6.00015 25.493 6.00015C22.3782 6.00015 20.1873 7.57172 20.1697 9.82106ZM33.7639 6.21123C33.1596 6.21123 32.6503 6.54579 32.4231 7.05919L27.6957 17.7721H31.0027L31.6608 16.046H35.7018L36.0836 17.7721H38.9983L36.4548 6.21123H33.7639ZM34.2265 9.33427L35.1809 13.6755H32.5672L34.2265 9.33427ZM16.1601 6.21138L13.5534 17.772H16.7047L19.3102 6.21109H16.1601M11.4983 6.21109L8.21832 14.0801L6.89151 7.3894C6.73583 6.64251 6.12102 6.21123 5.43827 6.21123H0.0765033L0.00140381 6.54694C1.10215 6.77364 2.35279 7.13928 3.11049 7.53051C3.57419 7.7695 3.70641 7.97841 3.85874 8.54632L6.37176 17.7721H9.70188L14.8074 6.21123L11.4983 6.21109Z" fill="url(#paint0_linear_183_2617)"/>
</g>
<g clip-path="url(#clip1_183_2617)">
<path d="M52.6375 23.8807V22.2922C52.6375 21.6832 52.2653 21.2861 51.6274 21.2861C51.3085 21.2861 50.9629 21.392 50.7237 21.7362C50.5377 21.445 50.272 21.2861 49.8733 21.2861C49.6074 21.2861 49.3418 21.3655 49.1291 21.6567V21.3391H48.5709V23.8807H49.1291V22.4775C49.1291 22.0275 49.3683 21.8156 49.7405 21.8156C50.1124 21.8156 50.2986 22.0539 50.2986 22.4775V23.8807H50.8568V22.4775C50.8568 22.0275 51.1224 21.8156 51.4679 21.8156C51.8401 21.8156 52.0261 22.0539 52.0261 22.4775V23.8807H52.6375ZM60.9032 21.3391H59.9996V20.5713H59.4415V21.3391H58.9365V21.842H59.4413V23.007C59.4413 23.5895 59.6806 23.9336 60.3185 23.9336C60.5577 23.9336 60.8234 23.8543 61.0096 23.7484L60.85 23.2717C60.6906 23.3776 60.5046 23.4042 60.3717 23.4042C60.1059 23.4042 59.9996 23.2453 59.9996 22.9805V21.842H60.9032V21.3391ZM65.6342 21.286C65.3153 21.286 65.1027 21.445 64.9697 21.6567V21.3391H64.4116V23.8807H64.9697V22.451C64.9697 22.0275 65.1557 21.7892 65.5012 21.7892C65.6075 21.7892 65.7405 21.8157 65.8468 21.8421L66.0062 21.3127C65.8999 21.2861 65.7405 21.2861 65.6342 21.2861V21.286ZM58.4846 21.5509C58.2188 21.3655 57.8467 21.2861 57.448 21.2861C56.8102 21.2861 56.385 21.6038 56.385 22.1068C56.385 22.5305 56.7039 22.7687 57.2621 22.8482L57.5278 22.8747C57.8202 22.9275 57.9796 23.007 57.9796 23.1394C57.9796 23.3247 57.767 23.4571 57.3949 23.4571C57.0228 23.4571 56.7304 23.3247 56.5443 23.1924L56.2786 23.6159C56.571 23.8277 56.9697 23.9336 57.3682 23.9336C58.1125 23.9336 58.5378 23.5895 58.5378 23.1129C58.5378 22.6628 58.1922 22.4245 57.6606 22.3451L57.3949 22.3186C57.1556 22.2921 56.9697 22.2393 56.9697 22.0804C56.9697 21.8951 57.1556 21.7892 57.448 21.7892C57.767 21.7892 58.0859 21.9215 58.2454 22.0009L58.4846 21.5509ZM73.3153 21.2861C72.9963 21.2861 72.7837 21.445 72.6507 21.6567V21.3391H72.0926V23.8807H72.6507V22.451C72.6507 22.0275 72.8368 21.7892 73.1823 21.7892C73.2887 21.7892 73.4216 21.8157 73.5279 21.8421L73.6874 21.3127C73.5811 21.2861 73.4216 21.2861 73.3153 21.2861ZM66.1923 22.6099C66.1923 23.3776 66.7238 23.9336 67.5478 23.9336C67.9199 23.9336 68.1856 23.8543 68.4514 23.6425L68.1856 23.1924C67.973 23.3512 67.7604 23.4306 67.5212 23.4306C67.0693 23.4306 66.7504 23.1129 66.7504 22.6099C66.7504 22.1334 67.0693 21.8156 67.5212 21.7892C67.7604 21.7892 67.973 21.8685 68.1856 22.0275L68.4514 21.5774C68.1856 21.3655 67.9199 21.2861 67.5478 21.2861C66.7238 21.2861 66.1923 21.8421 66.1923 22.6099ZM71.3485 22.6099V21.3391H70.7904V21.6567C70.6043 21.4186 70.3385 21.2861 69.993 21.2861C69.2754 21.2861 68.7173 21.8421 68.7173 22.6099C68.7173 23.3776 69.2754 23.9336 69.993 23.9336C70.365 23.9336 70.6309 23.8013 70.7904 23.563V23.8807H71.3485V22.6099ZM69.3019 22.6099C69.3019 22.1598 69.5943 21.7892 70.0726 21.7892C70.5245 21.7892 70.8435 22.1334 70.8435 22.6099C70.8435 23.06 70.5245 23.4306 70.0726 23.4306C69.5943 23.404 69.3019 23.06 69.3019 22.6099ZM62.6309 21.2861C61.8866 21.2861 61.355 21.8156 61.355 22.6099C61.355 23.4042 61.8865 23.9336 62.6574 23.9336C63.0294 23.9336 63.4016 23.8277 63.694 23.5895L63.4281 23.1924C63.2155 23.3512 62.9498 23.4571 62.684 23.4571C62.3385 23.4571 61.9929 23.2983 61.9131 22.8481H63.8003V22.6364C63.8269 21.8156 63.3486 21.2861 62.6309 21.2861ZM62.6309 21.7626C62.9763 21.7626 63.2156 21.9745 63.2687 22.3717H61.9398C61.9929 22.0275 62.2322 21.7626 62.6309 21.7626ZM76.4781 22.6099V20.333H75.9199V21.6567C75.7338 21.4186 75.4681 21.2861 75.1225 21.2861C74.405 21.2861 73.8468 21.8421 73.8468 22.6099C73.8468 23.3776 74.405 23.9336 75.1225 23.9336C75.4947 23.9336 75.7605 23.8013 75.9199 23.563V23.8807H76.4781V22.6099ZM74.4316 22.6099C74.4316 22.1598 74.7239 21.7892 75.2023 21.7892C75.6542 21.7892 75.9731 22.1334 75.9731 22.6099C75.9731 23.06 75.6542 23.4306 75.2023 23.4306C74.7239 23.404 74.4316 23.06 74.4316 22.6099ZM55.7736 22.6099V21.3391H55.2155V21.6567C55.0294 21.4186 54.7636 21.2861 54.4181 21.2861C53.7005 21.2861 53.1423 21.8421 53.1423 22.6099C53.1423 23.3776 53.7005 23.9336 54.4181 23.9336C54.7903 23.9336 55.056 23.8013 55.2155 23.563V23.8807H55.7736V22.6099ZM53.7005 22.6099C53.7005 22.1598 53.9929 21.7892 54.4712 21.7892C54.9231 21.7892 55.2421 22.1334 55.2421 22.6099C55.2421 23.06 54.9231 23.4306 54.4712 23.4306C53.9929 23.404 53.7005 23.06 53.7005 22.6099Z" fill="black"/>
<path d="M58.2986 2.03857H66.6707V17.0236H58.2986V2.03857Z" fill="#FF5F00"/>
<path d="M58.8302 9.53114C58.8302 6.48651 60.2654 3.78597 62.4713 2.03855C60.8501 0.767759 58.8037 0 56.5711 0C51.2818 0 47.0028 4.26247 47.0028 9.53114C47.0028 14.7997 51.2818 19.0623 56.571 19.0623C58.8035 19.0623 60.85 18.2945 62.4713 17.0236C60.2654 15.3027 58.8302 12.5758 58.8302 9.53114Z" fill="#EB001B"/>
<path d="M77.9664 9.53114C77.9664 14.7997 73.6874 19.0623 68.3982 19.0623C66.1657 19.0623 64.1192 18.2945 62.4979 17.0236C64.7305 15.2763 66.1392 12.5758 66.1392 9.53114C66.1392 6.48651 64.7039 3.78597 62.4979 2.03855C64.1191 0.767759 66.1657 0 68.3982 0C73.6874 0 77.9664 4.28901 77.9664 9.53114Z" fill="#F79E1B"/>
</g>
<g clip-path="url(#clip2_183_2617)">
<path d="M106.686 14.1798C106.686 13.8865 106.512 13.7252 106.242 13.6097C105.97 13.4997 105.642 13.4859 105.195 13.4859H103.202V16.0709H104.074V15.1295H105.004C105.314 15.1295 105.508 15.1515 105.622 15.2441C105.777 15.3632 105.756 15.5924 105.756 15.7483V16.0691H106.609V15.5603C106.606 15.3312 106.587 15.2157 106.469 15.0873C106.357 14.9895 106.21 14.9153 106.043 14.8728L106.069 14.8655C106.257 14.8092 106.418 14.7137 106.528 14.5914C106.639 14.4692 106.695 14.326 106.689 14.1807L106.686 14.1798ZM105.562 14.5529L105.526 14.5511C105.41 14.5997 105.274 14.6042 105.1 14.6042H104.054V14.0268H105.118C105.273 14.0268 105.428 14.0267 105.544 14.0726C105.605 14.0936 105.657 14.127 105.691 14.1686C105.726 14.2102 105.742 14.2581 105.738 14.3063C105.738 14.4163 105.68 14.5034 105.565 14.5538L105.562 14.5529ZM112.217 15.5173H110.542V16.0673H112.226C113.099 16.0673 113.582 15.8124 113.582 15.2569C113.582 15.0003 113.497 14.8462 113.341 14.7234C113.143 14.6015 112.834 14.5465 112.398 14.5337L111.912 14.5199C111.778 14.5199 111.68 14.5199 111.583 14.4924C111.525 14.4799 111.475 14.4543 111.44 14.4195C111.405 14.3847 111.387 14.3427 111.389 14.2999C111.389 14.2174 111.411 14.1477 111.505 14.1074C111.613 14.0656 111.734 14.0465 111.857 14.0524H113.445V13.5006H111.702C110.792 13.5006 110.464 13.9012 110.464 14.2706C110.464 15.0956 111.466 15.0543 112.282 15.0681C112.416 15.0681 112.514 15.0818 112.572 15.1231C112.632 15.1506 112.678 15.2203 112.678 15.2881C112.678 15.3587 112.633 15.4256 112.575 15.4531C112.497 15.5017 112.381 15.5173 112.217 15.5173ZM86 1V10.2547L87.0462 8.535H89.3067L89.5973 8.96033V8.535H92.2362L92.8174 9.47L93.3819 8.54142H101.78C102.161 8.54142 102.504 8.59367 102.757 8.75775V8.54692H105.065V8.75775C105.462 8.60192 105.951 8.54692 106.512 8.54692H109.878L110.188 8.97408V8.54692H112.665L112.993 8.97317V8.546H115.393V12.165H112.957L112.492 11.615V12.1512H109.453L109.122 11.5738H108.369L108.02 12.1366H106.454C105.834 12.1366 105.369 12.0413 105.059 11.9166V12.1366H101.326V11.3263C101.326 11.2163 101.287 11.2163 101.19 11.2025H101.054V12.1522H93.8365V11.7122L93.5653 12.1522H92.0579L91.797 11.7122V12.1384H88.8869L88.5562 11.5664H87.8083L87.4777 12.1384H86V23H116.724V16.4843C116.375 16.6081 115.932 16.6493 115.467 16.6493H113.241V16.4156C112.97 16.5668 112.505 16.6493 112.061 16.6493H105V15.8243C105 15.7143 104.977 15.7143 104.845 15.7143H104.749V16.6512H102.424V15.674C102.039 15.7987 101.593 15.8115 101.225 15.7987H100.948V16.6374H98.1326L97.4351 16.0718L96.6989 16.6218H92.1251V13.0193H96.788L97.4571 13.5712L98.1727 13.0212H101.288C101.65 13.0212 102.244 13.0487 102.505 13.2274V13.0074H105.317C105.578 13.0074 106.149 13.0487 106.483 13.2137V12.9937H110.701V13.2137C110.911 13.0633 111.357 12.9937 111.738 12.9937H114.179V13.2137C114.43 13.0762 114.778 12.9937 115.264 12.9937H116.783V1H86ZM113.326 14.7087C113.332 14.7133 113.336 14.7198 113.341 14.7234C113.354 14.7326 113.37 14.7326 113.381 14.7418L113.326 14.7097V14.7087ZM116.778 12.9918H116.862V13.5006H116.778V12.9918ZM116.826 14.7775V14.7729C116.787 14.75 116.766 14.7289 116.729 14.7087C116.535 14.5685 116.225 14.5117 115.742 14.5025L115.277 14.4915C115.159 14.4952 115.042 14.4859 114.928 14.464C114.871 14.4515 114.82 14.4259 114.785 14.3911C114.75 14.3563 114.732 14.3142 114.734 14.2715C114.734 14.189 114.773 14.1248 114.851 14.0845C114.949 14.0433 115.044 14.0387 115.199 14.0387H116.779V13.4997H115.122C114.231 13.4997 113.882 13.9003 113.882 14.2697C113.882 15.0947 114.889 15.0534 115.703 15.0672C115.837 15.0672 115.936 15.0809 115.992 15.1222C116.052 15.1497 116.091 15.2193 116.091 15.2872C116.091 15.3513 116.047 15.4137 115.974 15.4522C115.916 15.5035 115.799 15.5163 115.626 15.5163H113.962V16.0709H115.624C116.167 16.0709 116.572 15.9627 116.787 15.7409H116.826C116.942 15.6181 117 15.4659 117 15.2615C117 15.0415 116.942 14.904 116.826 14.7793V14.7775ZM110.021 14.024V13.4896H107.134V16.0865H110.021V15.5503H107.993V15.0278H109.973V14.4924H107.994V14.0249M103.45 9.05475H104.335V11.6333H103.452L103.45 9.05475ZM102.954 9.74775L102.945 9.75325C102.945 9.46542 102.777 9.29492 102.506 9.18125C102.226 9.06667 101.899 9.0575 101.46 9.0575H99.4721V11.6425H100.343V10.6947H101.273C101.583 10.6947 101.776 10.7222 101.902 10.8047C102.059 10.9293 102.04 11.1512 102.04 11.307V11.6315H102.914V11.1246C102.914 10.8954 102.894 10.7808 102.772 10.6516C102.659 10.554 102.512 10.4791 102.346 10.4343C102.568 10.3702 102.956 10.1593 102.956 9.74683L102.954 9.74775ZM101.85 10.1108H101.831C101.714 10.1603 101.579 10.1621 101.404 10.1621H100.337V9.591H101.403C101.558 9.591 101.713 9.59467 101.829 9.63683C101.946 9.6735 102.023 9.75417 102.023 9.866C102.023 9.97783 101.962 10.0677 101.85 10.1098V10.1108ZM106.563 9.59192H107.38V9.04192H106.548C105.948 9.04192 105.509 9.13817 105.23 9.34442C104.861 9.61942 104.763 9.97692 104.763 10.3619C104.763 10.8313 104.922 11.1255 105.228 11.3464C105.527 11.5646 106.061 11.6306 106.481 11.6306H107.488L107.818 11.0558H109.613L109.951 11.6306H111.708V9.69642L113.351 11.6306H114.578L114.581 11.6324V9.05383H113.697V10.8532L112.173 9.05658H110.856V11.45L109.392 9.01533H108.095L106.877 11.0503H106.49C106.261 11.0503 106.022 11.0228 105.885 10.9275C105.724 10.79 105.645 10.5975 105.645 10.3207C105.645 10.0594 105.748 9.85317 105.896 9.74317C106.067 9.61942 106.247 9.59192 106.562 9.59192H106.563ZM108.718 9.49292L109.317 10.5178V10.5196H108.116L108.718 9.49292ZM89.0742 11.0558L89.4023 11.6315H91.1667V9.61025L92.4222 11.6315H93.1765L94.4333 9.613L94.4527 11.6315H95.3439V9.05567H93.9024L92.86 10.801L91.7285 9.05475H90.318V11.4958L88.8481 9.05475H87.5603L86.0129 11.6306H86.9429L87.2787 11.0568L89.0742 11.0558ZM88.1855 9.49292L88.7797 10.5178L88.7758 10.5196H87.5939L88.1842 9.49292H88.1855ZM101.314 13.485H98.5472L97.4493 14.3311L96.3837 13.4859H92.9053V16.0709H96.3333L97.4377 15.2166L98.502 16.0691H100.184V15.2074H101.266C102.041 15.2074 102.777 15.0571 102.777 14.3412L102.77 14.3384C102.77 13.6234 101.997 13.4859 101.313 13.4859L101.314 13.485ZM95.9071 15.5319L95.889 15.5301H93.7758V15.0195H95.6746V14.4933H93.7758V14.0258H95.9458L96.8926 14.7775L95.9058 15.5328L95.9071 15.5319ZM99.3197 15.8344L97.9892 14.783L99.3197 13.7673V15.8326V15.8344ZM101.326 14.6813H100.182V14.024H101.326C101.636 14.024 101.868 14.1138 101.868 14.3393C101.868 14.5621 101.674 14.6803 101.326 14.6803V14.6813ZM98.874 9.59192V9.05475H95.9846V11.6333H98.874V11.1017H96.85V10.5847H98.8224V10.0567H96.85V9.59192" fill="#006FCF"/>
</g>
<defs>
<linearGradient id="paint0_linear_183_2617" x1="1792.84" y1="41.9279" x2="1825.68" y2="-1185.66" gradientUnits="userSpaceOnUse">
<stop stop-color="#222357"/>
<stop offset="1" stop-color="#254AA5"/>
</linearGradient>
<clipPath id="clip0_183_2617">
<rect width="39" height="12" fill="white" transform="translate(0 6)"/>
</clipPath>
<clipPath id="clip1_183_2617">
<rect width="31" height="24" fill="white" transform="translate(47)"/>
</clipPath>
<clipPath id="clip2_183_2617">
<rect width="31" height="22" fill="white" transform="translate(86 1)"/>
</clipPath>
</defs>
</svg>
