<svg width="16" height="22" viewBox="0 0 16 22" fill="none" xmlns="http://www.w3.org/2000/svg">
<path fill-rule="evenodd" clip-rule="evenodd" d="M7.84455 20.6618C4.15273 20.6618 1 20.0873 1 17.7865C1 15.4858 4.13273 13.3618 7.84455 13.3618C11.5364 13.3618 14.6891 15.4652 14.6891 17.766C14.6891 20.0658 11.5564 20.6618 7.84455 20.6618Z" fill="#A12D63" stroke="#A12D63" stroke-width="1.5" stroke-linecap="round" stroke-linejoin="round"/>
<path fill-rule="evenodd" clip-rule="evenodd" d="M7.83725 10.1735C10.26 10.1735 12.2236 8.2099 12.2236 5.78718C12.2236 3.36445 10.26 1.3999 7.83725 1.3999C5.41452 1.3999 3.44998 3.36445 3.44998 5.78718C3.4418 8.20172 5.3918 10.1654 7.80634 10.1735C7.81725 10.1735 7.82725 10.1735 7.83725 10.1735Z" fill="#A12D63" stroke="#A12D63" stroke-width="1.5" stroke-linecap="round" stroke-linejoin="round"/>
</svg>
