<svg width="24" height="25" viewBox="0 0 24 25" fill="none" xmlns="http://www.w3.org/2000/svg">
<path d="M20 9H5.48389" stroke="#A12D63" stroke-linecap="round"/>
<path d="M12.9443 8.5C12.9443 10.4644 11.4606 12 9.69825 12C7.93586 12 6.45215 10.4644 6.45215 8.5C6.45215 6.53561 7.93586 5 9.69825 5C11.4606 5 12.9443 6.53561 12.9443 8.5Z" fill="white" stroke="#A12D63"/>
<path d="M4.99998 17H19.5161" stroke="#A12D63" stroke-linecap="round"/>
<path d="M12.0557 16.5C12.0557 18.4644 13.5394 20 15.3018 20C17.0641 20 18.5479 18.4644 18.5479 16.5C18.5479 14.5356 17.0641 13 15.3018 13C13.5394 13 12.0557 14.5356 12.0557 16.5Z" fill="white" stroke="#A12D63"/>
</svg>
