<svg width="24" height="24" viewBox="0 0 24 24" fill="none" xmlns="http://www.w3.org/2000/svg">
<path d="M5.39999 4.7998C4.60434 4.7998 3.84128 5.11588 3.27867 5.67848C2.71606 6.24109 2.39999 7.00416 2.39999 7.7998V16.1998C2.39999 16.9955 2.71606 17.7585 3.27867 18.3211C3.84128 18.8837 4.60434 19.1998 5.39999 19.1998H13.8C14.5956 19.1998 15.3587 18.8837 15.9213 18.3211C16.4839 17.7585 16.8 16.9955 16.8 16.1998V14.9998L19.68 17.1598C19.8583 17.2935 20.0703 17.3749 20.2922 17.395C20.5142 17.415 20.7373 17.3728 20.9367 17.2731C21.136 17.1735 21.3036 17.0203 21.4208 16.8307C21.5379 16.6411 21.6 16.4227 21.6 16.1998V7.7998C21.6 7.57695 21.5379 7.3585 21.4208 7.16893C21.3036 6.97936 21.136 6.82616 20.9367 6.72649C20.7373 6.62683 20.5142 6.58464 20.2922 6.60465C20.0703 6.62467 19.8583 6.70609 19.68 6.8398L16.8 8.9998V7.7998C16.8 7.00416 16.4839 6.24109 15.9213 5.67848C15.3587 5.11588 14.5956 4.7998 13.8 4.7998H5.39999ZM16.8 10.4998L20.4 7.7998V16.1998L16.8 13.4998V10.4998ZM15.6 7.7998V16.1998C15.6 16.6772 15.4104 17.135 15.0728 17.4726C14.7352 17.8102 14.2774 17.9998 13.8 17.9998H5.39999C4.9226 17.9998 4.46477 17.8102 4.1272 17.4726C3.78964 17.135 3.59999 16.6772 3.59999 16.1998V7.7998C3.59999 7.32242 3.78964 6.86458 4.1272 6.52701C4.46477 6.18945 4.9226 5.9998 5.39999 5.9998H13.8C14.2774 5.9998 14.7352 6.18945 15.0728 6.52701C15.4104 6.86458 15.6 7.32242 15.6 7.7998Z" fill="#A12D63"/>
</svg>
